# xmcd
#
# Track frame offsets: 
#        150
#        15887
#        32875
#        49902
#        75720
#
# Disc length: 1221 seconds
#
# Revision: 0
# Processed by: cddbd v1.5.2PL0 Copyright (c) Steve Scherf et al.
# Submitted via: ExactAudioCopy v1.3
#
DISCID=3004c305
DTITLE=Flawless Carbon - A Good Day To Feel Blue
DYEAR=2017
DGENRE=Blues
TTITLE0=Runaway Blues
TTITLE1=Give Me Everything
TTITLE2=Nothing More for Me
TTITLE3=Broken
TTITLE4=Money man
EXTD=
EXTT0=
EXTT1=
EXTT2=
EXTT3=
EXTT4=
PLAYORDER=
